<svg width="32" height="32" xmlns="http://www.w3.org/2000/svg">
  <rect width="32" height="32" fill="#1DB954" rx="4"/>
  <path d="M16 8c1.473 0 2.667 1.194 2.667 2.667s-1.194 2.667-2.667 2.667-2.667-1.194-2.667-2.667S14.527 8 16 8zm-6.667 6.667c1.473 0 2.667 1.194 2.667 2.667s-1.194 2.667-2.667 2.667-2.667-1.194-2.667-2.667 1.194-2.667 2.667-2.667zm13.334 0c1.473 0 2.667 1.194 2.667 2.667s-1.194 2.667-2.667 2.667-2.667-1.194-2.667-2.667 1.194-2.667 2.667-2.667zm-13.334 6.666c1.473 0 2.667 1.194 2.667 2.667s-1.194 2.667-2.667 2.667-2.667-1.194-2.667-2.667 1.194-2.667 2.667-2.667zm6.667 0c1.473 0 2.667 1.194 2.667 2.667s-1.194 2.667-2.667 2.667-2.667-1.194-2.667-2.667 1.194-2.667 2.667-2.667zm6.667 0c1.473 0 2.667 1.194 2.667 2.667s-1.194 2.667-2.667 2.667-2.667-1.194-2.667-2.667 1.194-2.667 2.667-2.667z" fill="white"/>
</svg>
