<svg width="512" height="512" xmlns="http://www.w3.org/2000/svg">
  <rect width="512" height="512" fill="#1DB954" rx="50"/>
  <path d="M256 130c23.564 0 42.667 19.103 42.667 42.667s-19.103 42.667-42.667 42.667-42.667-19.103-42.667-42.667S232.436 130 256 130zm-106.667 106.667c23.564 0 42.667 19.103 42.667 42.667s-19.103 42.667-42.667 42.667-42.667-19.103-42.667-42.667 19.103-42.667 42.667-42.667zm213.334 0c23.564 0 42.667 19.103 42.667 42.667s-19.103 42.667-42.667 42.667-42.667-19.103-42.667-42.667 19.103-42.667 42.667-42.667zm-213.334 106.666c23.564 0 42.667 19.103 42.667 42.667s-19.103 42.667-42.667 42.667-42.667-19.103-42.667-42.667 19.103-42.667 42.667-42.667zm106.667 0c23.564 0 42.667 19.103 42.667 42.667s-19.103 42.667-42.667 42.667-42.667-19.103-42.667-42.667 19.103-42.667 42.667-42.667zm106.667 0c23.564 0 42.667 19.103 42.667 42.667s-19.103 42.667-42.667 42.667-42.667-19.103-42.667-42.667 19.103-42.667 42.667-42.667z" fill="white"/>
</svg>
